<?xml version="1.0" encoding="UTF-8"?><svg id="Calque_2" xmlns="http://www.w3.org/2000/svg" viewBox="0 0 285.31 441.18"><defs><style>.cls-1{fill:#27eb42;}</style></defs><g id="Calque_1-2"><g id="_3vgYzo"><path class="cls-1" d="m94.91,283.92c-5.05,19.95-1.33,37.08,13.01,51.2,15.63,15.41,40.01,18.42,59.15,7.7,18.86-10.56,28.98-32.34,24.62-52.97-4.66-22.03-22.66-37.98-44.94-39.74-2.53-.2-4.45-.3-4.44-3.75.12-28.82.09-57.64.13-86.46,0-.47.27-.93.59-1.98,22.45-.28,43.69,4.92,63.72,15.03,29.08,14.68,50.97,36.69,64.86,66.18,28.4,60.34,11.65,130.35-40.77,171.74-51.29,40.5-125.31,40.41-176.54-.1C-.59,367.36-8.86,299.62,7.46,255.69c29.01,9.36,58.05,18.74,87.45,28.22Z"/><path class="cls-1" d="m94.85,126.46c-29.76-9.62-58.54-18.91-87.26-28.19C14.06,48.38,87.63-5.04,142.44.38v91.45c-10.74.56-20.73,3.17-29.48,9.5-8.76,6.33-14.27,15.08-18.1,25.13Z"/></g></g></svg>